# Blender v3.0.0 OBJ File: ''
# www.blender.org
mtllib player.mtl
o Plane
v 0.000000 -0.500000 0.000000
v 0.269807 -0.500000 0.000000
v -0.269807 -0.500000 0.000000
v 0.000000 -0.500000 -0.269807
v 0.000000 -0.500000 0.269807
v 0.204868 -0.500000 -0.204868
v -0.204868 -0.500000 -0.204868
v 0.204868 -0.500000 0.204868
v -0.204868 -0.500000 0.204868
v 0.000000 0.500000 0.000000
v 0.269807 0.500000 0.000000
v -0.269807 0.500000 0.000000
v 0.000000 0.500000 -0.269807
v 0.000000 0.500000 0.269807
v 0.204868 0.500000 -0.204868
v -0.204868 0.500000 -0.204868
v 0.204868 0.500000 0.204868
v -0.204868 0.500000 0.204868
v -0.226361 0.175183 0.000000
v -0.171879 0.175183 -0.171879
v -0.000000 0.175183 0.226361
v -0.171879 0.175183 0.171879
v 0.171879 0.175183 0.171879
v -0.000000 0.175183 -0.226361
v 0.171879 0.175183 -0.171879
v 0.226361 0.175183 0.000000
v -0.262244 0.270855 0.000000
v -0.000000 0.270855 0.262244
v 0.199125 0.270855 0.199125
v -0.000000 0.270855 -0.262244
v 0.262244 0.270855 0.000000
v -0.199125 0.270855 -0.199125
v -0.199125 0.270855 0.199125
v 0.199125 0.270855 -0.199125
vt 0.295132 0.295132
vt 0.230193 0.500000
vt 0.500000 0.500000
vt 0.500000 0.230193
vt 0.500000 0.769807
vt 0.704868 0.704868
vt 0.769807 0.500000
vt 0.295132 0.704868
vt 0.704868 0.295132
vt 0.295132 0.295132
vt 0.500000 0.230193
vt 0.500000 0.500000
vt 0.230193 0.500000
vt 0.769807 0.500000
vt 0.704868 0.704868
vt 0.500000 0.769807
vt 0.295132 0.704868
vt 0.704868 0.295132
vt 0.699125 0.659346
vt 0.500000 0.659346
vt 0.500000 0.888490
vt 0.704868 0.888490
vt 0.300875 0.659346
vt 0.500000 0.659346
vt 0.500000 0.888490
vt 0.295132 0.888490
vt 0.699125 0.659346
vt 0.704868 0.888490
vt 0.699125 0.659346
vt 0.500000 0.659346
vt 0.500000 0.888490
vt 0.704868 0.888490
vt 0.300875 0.659346
vt 0.500000 0.659346
vt 0.500000 0.888490
vt 0.295132 0.888490
vt 0.300875 0.659346
vt 0.295132 0.888490
vt 0.500000 -0.111510
vt 0.295132 -0.111510
vt 0.328121 0.563674
vt 0.500000 0.563674
vt 0.500000 -0.111510
vt 0.704868 -0.111510
vt 0.671879 0.563674
vt 0.500000 0.563674
vt 0.295132 -0.111510
vt 0.328121 0.563674
vt 0.500000 -0.111510
vt 0.704868 -0.111510
vt 0.671879 0.563674
vt 0.500000 0.563674
vt 0.500000 -0.111510
vt 0.295132 -0.111510
vt 0.328121 0.563674
vt 0.500000 0.563674
vt 0.704868 -0.111510
vt 0.671879 0.563674
vn 0.0000 -1.0000 0.0000
vn 0.0000 1.0000 0.0000
vn -0.9528 -0.0314 -0.3020
vn -0.3020 -0.0314 0.9528
vn -0.9528 -0.0314 0.3020
vn 0.3020 -0.0314 0.9528
vn 0.3020 -0.0314 -0.9528
vn 0.9528 -0.0314 0.3020
vn 0.9528 -0.0314 -0.3020
vn -0.3020 -0.0314 -0.9528
vn -0.3016 0.0612 -0.9515
vn 0.9515 0.0612 -0.3016
vn 0.9515 0.0612 0.3016
vn 0.3016 0.0612 -0.9515
vn 0.3016 0.0612 0.9515
vn -0.9515 0.0612 0.3016
vn -0.3016 0.0612 0.9515
vn -0.9515 0.0612 -0.3016
vn -0.2845 -0.3367 -0.8976
vn 0.8976 -0.3367 -0.2845
vn 0.8976 -0.3367 0.2845
vn 0.2845 -0.3367 -0.8976
vn 0.2845 -0.3367 0.8976
vn -0.8976 -0.3367 0.2845
vn -0.2845 -0.3367 0.8976
vn -0.8976 -0.3367 -0.2845
usemtl Material.001
s off
f 9/1/1 3/2/1 1/3/1 5/4/1
f 1/3/1 4/5/1 6/6/1 2/7/1
f 3/2/1 7/8/1 4/5/1 1/3/1
f 5/4/1 1/3/1 2/7/1 8/9/1
f 18/10/2 14/11/2 10/12/2 12/13/2
f 10/12/2 11/14/2 15/15/2 13/16/2
f 12/13/2 10/12/2 13/16/2 16/17/2
f 14/11/2 17/18/2 11/14/2 10/12/2
f 32/19/3 27/20/3 12/21/3 16/22/3
f 33/23/4 28/24/4 14/25/4 18/26/4
f 27/20/5 33/23/5 18/26/5 12/21/5
f 28/24/6 29/27/6 17/28/6 14/25/6
f 34/29/7 30/30/7 13/31/7 15/32/7
f 29/33/8 31/34/8 11/35/8 17/36/8
f 31/34/9 34/29/9 15/32/9 11/35/9
f 30/30/10 32/37/10 16/38/10 13/31/10
f 4/39/11 7/40/11 20/41/11 24/42/11
f 2/43/12 6/44/12 25/45/12 26/46/12
f 8/47/13 2/43/13 26/46/13 23/48/13
f 6/44/14 4/39/14 24/42/14 25/45/14
f 5/49/15 8/50/15 23/51/15 21/52/15
f 3/53/16 9/54/16 22/55/16 19/56/16
f 9/54/17 5/49/17 21/52/17 22/55/17
f 7/57/18 3/53/18 19/56/18 20/58/18
f 24/42/19 20/41/19 32/37/19 30/30/19
f 26/46/20 25/45/20 34/29/20 31/34/20
f 23/48/21 26/46/21 31/34/21 29/33/21
f 25/45/22 24/42/22 30/30/22 34/29/22
f 21/52/23 23/51/23 29/27/23 28/24/23
f 19/56/24 22/55/24 33/23/24 27/20/24
f 22/55/25 21/52/25 28/24/25 33/23/25
f 20/58/26 19/56/26 27/20/26 32/19/26
